<?xml version="1.0" encoding="UTF-8" standalone="no"?>
<!-- Created with Inkscape (http://www.inkscape.org/) -->

<svg
   xmlns:dc="http://purl.org/dc/elements/1.1/"
   xmlns:cc="http://creativecommons.org/ns#"
   xmlns:rdf="http://www.w3.org/1999/02/22-rdf-syntax-ns#"
   xmlns:svg="http://www.w3.org/2000/svg"
   xmlns="http://www.w3.org/2000/svg"
   version="1.1"
   width="343pt"
   height="340pt"
   id="svg4095">
  <defs
     id="defs4097" />
  <metadata
     id="metadata4101">
    <rdf:RDF>
      <cc:Work
         rdf:about="">
        <dc:format>image/svg+xml</dc:format>
        <dc:type
           rdf:resource="http://purl.org/dc/dcmitype/StillImage" />
        <dc:title></dc:title>
      </cc:Work>
    </rdf:RDF>
  </metadata>
  <g
     id="layer1">
    <path
       d="m 769.73625,1600.37 a 76.771591,88.388351 0 1 1 -153.54318,0 76.771591,88.388351 0 1 1 153.54318,0 z"
       transform="matrix(1.0876631,0,0,0.91560096,-419.29007,-1335.254)"
       id="path3064-91"
       style="fill:#c8c4b7;fill-opacity:1;stroke:none" />
    <path
       d="m 346.07214,51.768228 -11.00737,0.02096 c -12.54566,0.02501 -19.90734,0.765926 -21.31754,2.176155 -0.99329,0.993292 -4.20115,12.511409 -4.22548,15.14831 -0.0107,1.158188 0.6546,1.675724 3.19023,2.493033 3.93054,1.266968 21.6258,6.297589 23.49367,6.676254 0.74368,0.150769 2.10048,0.01014 3.02122,-0.316874 1.92166,-0.683176 18.0211,-9.465074 19.79636,-10.796133 1.07145,-0.803315 0.53116,-1.54159 -5.87341,-8.134014 l -7.07768,-7.267825 z m 47.43101,35.261593 c -0.78083,0.01281 -0.83652,0.261777 -0.6127,0.845089 0.22798,0.59408 1.05678,6.9398 1.85921,14.09201 1.06928,9.53086 1.75493,13.31209 2.55642,14.15536 0.60144,0.63281 4.90156,4.04808 9.54958,7.5847 4.64803,3.53656 8.86769,6.43038 9.38057,6.44383 0.75105,0.0203 0.84333,-0.91122 0.4648,-4.85924 -0.99032,-10.32903 -3.89106,-20.50122 -8.34532,-29.26148 -3.35794,-6.60412 -5.01284,-7.73992 -12.59193,-8.767839 -1.07103,-0.145279 -1.79213,-0.240003 -2.26063,-0.23243 z M 268.32332,94.36106 c -8.07668,0 -8.71601,0.0957 -10.01439,1.52117 -1.85155,2.03283 -2.72675,3.82647 -4.69028,9.54959 -2.42537,7.06932 -3.61819,13.39632 -3.57053,18.88782 l 0.0423,4.85938 7.16219,6.59174 c 3.94329,3.62533 7.5543,6.59175 8.00729,6.59175 0.92763,-1.3e-4 6.38252,-5.72258 13.58491,-14.23993 l 4.83818,-5.7255 -2.61981,-11.74683 c -1.43934,-6.45964 -2.94597,-12.77636 -3.35925,-14.02859 l -0.76058,-2.2606 -8.61998,0 z m 74.32618,18.25407 c -0.89405,0 -25.19504,18.61712 -25.56415,19.58506 -0.36266,0.95105 11.16212,26.78643 12.92997,28.9868 0.5596,0.69656 1.88431,0.81481 5.49313,0.48589 18.03312,-1.64266 25.80335,-2.62264 26.47262,-3.31696 0.66734,-0.69225 7.70812,-26.91401 7.66924,-28.56425 -0.008,-0.33675 -1.17921,-1.44721 -2.59867,-2.45077 -3.65783,-2.58613 -23.77573,-14.72577 -24.40214,-14.72577 z m 61.31171,58.39613 c -0.16598,-0.16597 -5.59619,1.42942 -12.06374,3.52825 l -11.74684,3.80292 -7.41571,9.31722 c -4.07681,5.1202 -7.53279,9.68946 -7.69038,10.16224 -0.15758,0.47278 0.27074,1.27745 0.95073,1.7747 1.60087,1.17083 4.47367,1.13947 7.35234,-0.0636 7.37763,-3.0825 22.8876,-16.40419 28.24734,-24.27534 1.4754,-2.16676 2.53217,-4.08073 2.36626,-4.24657 z m -119.24303,5.83116 c -1.05274,-0.009 -1.71671,0.69014 -2.47191,2.57747 -1.72484,4.31094 -2.87796,10.87179 -2.11274,12.08488 1.00151,1.58776 10.93775,7.37823 18.42309,10.75388 3.60212,1.62441 7.15797,2.95783 7.90165,2.95783 1.83002,-0.008 17.81732,-3.70409 18.35971,-4.24664 0.36812,-0.36799 -1.68601,-3.04146 -11.62007,-15.14831 -1.08737,-1.32525 -3.98233,-2.39541 -14.19761,-5.30301 -7.05746,-2.00863 -13.48585,-3.66947 -14.28212,-3.6761 z"
       id="path3056-9"
       style="fill:#484537" />
    <path
       d="m 172.21605,354.0854 c -3.06699,-1.51813 -6.56689,-6.46607 -8.83377,-12.48856 -0.4771,-1.26758 -0.93752,-2.41799 -1.02316,-2.55658 -0.0857,-0.13853 -0.80478,-0.0135 -1.59809,0.27875 -2.26473,0.83319 -6.80842,0.73103 -9.23619,-0.2077 -7.3923,-2.85839 -12.4737,-12.15653 -9.58973,-17.54771 0.41082,-0.76802 3.47754,-3.57847 8.30165,-7.60796 l 7.65018,-6.39007 -3.89401,-1.97495 c -2.14169,-1.08625 -4.16264,-1.98294 -4.49099,-1.99267 -0.32835,-0.01 -2.17229,1.102 -4.09764,2.47038 -6.23769,4.43337 -10.26044,6.57735 -15.28137,8.14443 -2.16513,0.67574 -3.27365,0.79756 -7.17088,0.78811 -4.13196,-0.0101 -4.88996,-0.10865 -7.31193,-0.95152 -5.2046,-1.81135 -9.73727,-4.98546 -15.09456,-10.57039 -6.197669,-6.46113 -13.722267,-17.31493 -16.186607,-23.34838 -2.102484,-5.14758 -3.524246,-6.77422 -7.163919,-8.19648 -2.295748,-0.89709 -12.164887,-0.86985 -17.073521,0.0473 -2.798917,0.52288 -5.121031,0.67263 -10.585584,0.68291 -6.354539,0.0121 -7.228362,-0.0588 -9.474749,-0.76464 -3.566636,-1.12107 -5.464112,-2.95033 -6.003257,-5.78749 -0.567451,-2.98617 1.730872,-8.69246 5.745253,-14.26434 1.217797,-1.69026 2.215578,-3.16444 2.217295,-3.276 0.0013,-0.11148 -1.188293,-1.20815 -2.64446,-2.43699 -5.441648,-4.59211 -10.026069,-9.87707 -12.059559,-13.90236 -1.372037,-2.71594 -1.733373,-6.24107 -0.851559,-8.3077 1.159742,-2.71804 4.868732,-5.37988 10.076261,-7.23145 2.516303,-0.89473 10.655151,-2.64218 14.446028,-3.10164 1.505204,-0.18241 1.963455,-0.37009 1.963455,-0.8042 0,-0.4293 -1.34187,-1.00701 -5.548893,-2.38919 -12.393568,-4.0716 -23.117571,-8.88364 -28.206022,-12.65649 -8.659041,-6.42029 -5.697062,-11.33727 9.975546,-16.55969 3.259772,-1.08624 22.12812,-5.89816 25.572088,-6.52157 1.330384,-0.24081 1.732927,-1.00769 0.682939,-1.30111 -0.328668,-0.0919 -1.980527,-0.26819 -3.670806,-0.39178 -18.092313,-1.32329 -34.168721,-5.90201 -40.232893,-11.45869 -2.769494,-2.53772 -3.62465,-4.39456 -2.9937212,-6.50048 1.7408032,-5.81027 13.2375682,-10.17151 30.5681732,-11.596 5.076315,-0.41721 27.319759,-0.24825 29.817323,0.22655 0.610374,0.11602 1.101261,0.0782 1.090856,-0.0839 -0.01041,-0.16218 -5.299083,-4.19674 -11.752614,-8.96565 L 46.51893,125.91875 45.4664,123.63523 c -1.271139,-2.75771 -1.309175,-3.56035 -0.216723,-4.57278 1.201152,-1.11323 2.887692,-1.55761 7.530224,-1.98421 5.730839,-0.52661 17.948708,0.33594 22.87851,1.61521 10.974079,2.84763 27.679339,9.62976 41.830119,16.98257 41.59095,21.61086 71.01144,46.24872 94.82337,74.96251 4.6719,5.63368 5.43494,-10.03798 33.16721,25.88867 14.17565,18.36434 6.2709,26.27869 11.40478,34.78448 5.13389,8.5058 16.54532,30.38221 22.27764,44.39113 5.56903,13.6099 5.69614,20.71493 0.42447,23.72725 -2.19709,1.25548 -4.22285,1.69019 -10.23014,2.19509 -3.9766,0.33425 -5.59978,0.30626 -10.58558,-0.18268 -19.3391,-1.8964 -36.47905,-6.03303 -60.68983,-14.64713 -5.72546,-2.03716 -10.44362,-3.67015 -10.48481,-3.62898 -0.0412,0.0412 -0.38577,2.40494 -0.76573,5.25278 -0.85288,6.39237 -1.86658,11.41535 -2.98118,14.77207 -1.77847,5.35601 -4.76003,9.74964 -7.44336,10.96854 -1.77872,0.80797 -2.43074,0.79641 -4.18932,-0.074 l 0,0 z"
       id="path2998-4"
       style="fill:#484537;fill-opacity:1;stroke:none" />
    <path
       d="m 244.2338,335.25254 c -23.94649,-4.11724 -44.07536,-10.69303 -59.64772,-19.4049 -17.32729,-9.69365 -37.19662,-19.02216 -44.98433,-30.5187 -3.41923,-5.04759 -8.45309,-15.59656 -5.90386,-19.91486 4.28718,-7.26221 10.27971,-14.31849 26.15253,-16.71566 7.50243,-1.13303 29.97853,3.83984 40.06187,5.59731 14.16522,2.46904 21.12015,8.49463 31.62565,6.05758 6.57418,-1.52509 10.60345,-3.38397 13.65438,0.6297 9.66012,12.70849 11.23797,18.07329 25.1858,45.03813 11.64001,22.50315 10.1699,25.13512 7.0922,27.94347 -3.08638,2.8162 -6.84419,3.41081 -17.70955,2.80227 -5.4812,-0.30701 -12.46834,-0.98843 -15.52697,-1.51434 z"
       id="path3006-1"
       style="fill:#aca793;fill-opacity:1;stroke:none" />
    <path
       d="m 232.75442,273.54053 c -1.27854,-0.51545 -3.47826,-1.82717 -4.88828,-2.91505 l -2.56369,-1.97786 -0.24171,-5.18003 c -0.39636,-8.49456 -3.68601,-16.78671 -11.03213,-27.80839 l -3.33665,-5.00614 0.006,-3.5676 c 0.006,-3.8374 0.90438,-7.98567 2.13617,-9.86564 0.42057,-0.64187 1.44085,-1.51671 2.26728,-1.94406 3.10309,-1.60467 8.71915,1.08848 15.42512,7.39696 13.36082,12.56894 23.10579,31.67168 21.22255,41.6019 -0.82127,4.33054 -2.6271,6.67037 -6.7701,8.77196 -3.0661,1.55532 -8.99696,1.79492 -12.22429,0.49395 z"
       id="path3028-3"
       style="fill:#c8c4b7;fill-opacity:1;stroke:none" />
    <path
       d="m 205.91338,275.17724 c -7.91599,-2.21293 -14.46129,-8.77899 -19.61215,-19.67444 -7.09082,-14.99904 -9.43086,-34.33348 -5.23006,-43.21327 1.49839,-3.16729 3.12222,-4.08398 6.0639,-3.42297 9.19343,2.06561 25.04629,18.74888 33.42419,35.17498 3.75574,7.36369 5.23087,12.27789 5.29105,17.62633 0.0446,3.95951 -0.0781,4.57596 -1.37938,6.92877 -2.29728,4.15396 -6.64964,6.53395 -12.90131,7.0548 -1.98013,0.16496 -3.96513,0 -5.65624,-0.4742 l 0,0 z"
       id="path3030-6"
       style="fill:#c8c4b7;fill-opacity:1;stroke:none" />
    <path
       d="m 455.71428,1813.4336 a 11.071428,9.6428576 0 1 1 -22.14286,0 11.071428,9.6428576 0 1 1 22.14286,0 z"
       transform="matrix(0.57451574,0,0,0.65962914,-52.048232,-962.97559)"
       id="path3032-3"
       style="fill:#000000;fill-opacity:1;stroke:none" />
    <path
       d="m 455.71428,1813.4336 a 11.071428,9.6428576 0 1 1 -22.14286,0 11.071428,9.6428576 0 1 1 22.14286,0 z"
       transform="matrix(0.47979639,0,0,0.55087731,16.662551,-766.4786)"
       id="path3032-9-7"
       style="fill:#000000;fill-opacity:1;stroke:none" />
    <path
       d="m 189.15381,318.78899 -3.48313,-1.75003 -0.90139,-1.45127 c -4.65799,-7.49938 -7.04962,-15.72621 -7.04435,-24.23132 0.002,-2.77023 0.81063,-14.7643 0.96217,-14.26658 0.0281,0.0924 0.40144,2.58802 0.82963,5.54599 1.61972,11.18914 2.45375,15.0515 4.40665,20.40711 1.94251,5.32708 5.19565,11.7135 8.27693,16.2489 0.74507,1.09672 0.81477,1.24722 0.57762,1.24722 -0.0776,0 -1.7084,-0.7875 -3.62413,-1.75002 z"
       id="path3054-8"
       style="fill:#6c5d53;fill-opacity:1;stroke:none" />
    <path
       d="m 38.618183,143.60859 c -16.933423,1.48425 -28.157176,5.80513 -29.8740721,11.53549 -0.6309154,2.1059 0.2306091,3.94842 3.0000221,6.48614 6.064205,5.55668 22.134211,10.14886 40.226565,11.47221 1.69026,0.12359 3.347526,0.28842 3.676235,0.38022 1.050014,0.29349 0.654239,1.06915 -0.676077,1.30998 -3.44407,0.6234 -22.32554,5.42091 -25.585312,6.50723 -15.672607,5.22243 -18.631187,10.14359 -9.972132,16.56388 5.088424,3.77284 15.811542,8.58368 28.20511,12.65528 4.207022,1.38217 5.556472,1.95812 5.556472,2.38743 0,0.43411 -0.459665,0.62036 -1.964882,0.80277 -3.790897,0.45954 -11.934782,2.21105 -14.45114,3.10576 -5.207549,1.85158 -8.917993,4.52871 -10.077735,7.24673 -0.881806,2.06664 -0.505908,5.5871 0.866189,8.30304 2.033504,4.0253 6.601011,9.30971 12.042685,13.90182 1.456201,1.22884 2.64089,2.3182 2.64089,2.42962 -0.0013,0.11162 -0.979432,1.58452 -2.197249,3.27478 -4.01434,5.57189 -6.314083,11.27487 -5.746652,14.26103 0.539171,2.83715 2.433538,4.66776 6.000181,5.78883 2.246332,0.70583 3.110493,0.77284 9.465074,0.7606 5.464526,-0.0101 7.78597,-0.15313 10.584792,-0.67608 4.908655,-0.9171 14.775184,-0.93934 17.070946,-0.0419 3.639726,1.4222 5.05969,3.04978 7.162222,8.19743 2.464299,6.03344 10.007044,16.88462 16.204715,23.34574 5.35729,5.58494 9.88037,8.75235 15.08496,10.5637 2.42196,0.84286 3.17811,0.94056 7.31008,0.95069 3.89722,0.01 5.01818,-0.10594 7.18331,-0.78167 5.02094,-1.56708 9.03742,-3.70071 15.2751,-8.13402 1.92536,-1.36838 3.77038,-2.4814 4.09873,-2.47193 0.32834,0.01 2.33731,0.89972 4.479,1.98597 l 3.90858,1.96481 -7.64812,6.40164 c -4.82413,4.02948 -7.89226,6.83784 -8.30307,7.60586 -2.88397,5.39117 2.19954,14.69845 9.59184,17.5569 2.42776,0.93867 6.96795,1.02332 9.23266,0.19012 0.79333,-0.29227 1.49893,-0.41315 1.58457,-0.27463 0.0856,0.1386 0.55814,1.28881 1.03524,2.55639 2.26687,6.02249 5.76425,10.96819 8.83125,12.48632 1.75857,0.87045 2.40449,0.89242 4.18322,0.0845 2.68332,-1.2189 5.65838,-5.60913 7.43685,-10.96515 1.1146,-3.35673 2.14721,-8.39681 3.00008,-14.78918 0.37997,-2.84784 0.71942,-5.19836 0.7606,-5.2396 0.0411,-0.0412 4.75372,1.59676 10.47918,3.63391 24.21079,8.6141 41.35992,12.74487 60.69901,14.64126 4.98581,0.489 6.60822,0.52443 10.58483,0.19018 3.93981,-0.33114 6.15207,-0.63991 7.83826,-1.16198 C 212.00332,310.20789 161.02236,275.23653 115.3318,229.93533 98.39298,213.14084 84.236738,197.49372 60.844205,169.74341 53.862496,161.461 45.6197,151.78505 38.618183,143.60886 z"
       id="path2998-6-0"
       style="opacity:0.24894517;fill:#000000;fill-opacity:1;stroke:none" />
    <path
       d="m 261.87898,88.80885 c -7.2696,12.06648 -11.45105,26.13543 -11.45105,41.17733 0,44.69556 36.84131,80.93903 82.29121,80.93903 22.90926,6e-5 43.62403,-9.20898 58.54403,-24.06408 -7.94779,-1.57897 -16.03775,-3.70118 -23.57818,-6.21145 -43.46146,-14.46851 -78.28662,-44.68509 -105.80601,-91.84083 z"
       id="path3064-9-3"
       style="opacity:0.24894517;fill:#000000;fill-opacity:1;stroke:none" />
    <path
       d="m 213.03144,217.00172 c -0.0622,0.0781 -0.14231,0.15941 -0.19015,0.23243 -1.23179,1.87997 -2.12778,6.02911 -2.13386,9.86653 l 0,3.5705 3.33813,5.00716 c 7.34611,11.02166 10.63213,19.30915 11.02849,27.80365 l 0.2324,5.17625 2.57755,1.98597 c 1.41002,1.08787 3.6019,2.40014 4.88043,2.91559 2.21879,0.89444 5.71831,1.05926 8.68336,0.57039 -12.86517,-11.4962 -21.60427,-26.61882 -26.15572,-45.27597 -0.80465,-3.29844 -1.79459,-8.50221 -2.21837,-11.55665 -0.0127,-0.0915 -0.0297,-0.20242 -0.0423,-0.29585 z"
       id="path3028-1-5"
       style="opacity:0.25;fill:#000000;fill-opacity:1;stroke:none" />
    <path
       d="m 183.78291,209.12752 c -1.05172,0.51078 -1.88387,1.56403 -2.68318,3.25355 -4.2008,8.8798 -1.85123,28.20653 5.23959,43.20556 5.15087,10.89545 11.69025,17.4778 19.60622,19.69074 1.69113,0.47419 3.68202,0.62976 5.66215,0.4648 1.1029,-0.0919 2.14303,-0.23656 3.12686,-0.44364 -6.35632,-3.5847 -12.56889,-9.38124 -17.8104,-16.7329 -3.49132,-4.89696 -8.60294,-15.0659 -10.39468,-20.6415 -3.00125,-9.33953 -4.06411,-20.58276 -2.74656,-28.79661 z"
       id="path3030-5-9"
       style="opacity:0.25;fill:#000000;fill-opacity:1;stroke:none" />
  </g>
</svg>
